<?xml version="1.0" encoding="UTF-8"?>
<!-- 
  ShivaayMusic App Icon Legacy Version (Complete)
  Created by: Shivaay (Shivaay20005)
  Copyright © 2024 Shivaay20005
-->
<svg width="48" height="48" viewBox="0 0 48 48" xmlns="http://www.w3.org/2000/svg">
  <defs>
    <!-- Background gradient -->
    <radialGradient id="bgGradient" cx="50%" cy="50%" r="50%">
      <stop offset="0%" style="stop-color:#ffffff;stop-opacity:1" />
      <stop offset="100%" style="stop-color:#f8f9fa;stop-opacity:1" />
    </radialGradient>
    
    <!-- Note gradient -->
    <linearGradient id="noteGradient" x1="0%" y1="0%" x2="100%" y2="100%">
      <stop offset="0%" style="stop-color:#ffc107"/>
      <stop offset="30%" style="stop-color:#ff9800"/>
      <stop offset="60%" style="stop-color:#e91e63"/>
      <stop offset="100%" style="stop-color:#9c27b0"/>
    </linearGradient>
    
    <!-- Ring gradients -->
    <linearGradient id="outerRing" x1="0%" y1="0%" x2="100%" y2="100%">
      <stop offset="0%" style="stop-color:#9c27b0"/>
      <stop offset="100%" style="stop-color:#673ab7"/>
    </linearGradient>
    
    <linearGradient id="middleRing" x1="0%" y1="0%" x2="100%" y2="100%">
      <stop offset="0%" style="stop-color:#e91e63"/>
      <stop offset="100%" style="stop-color:#e91e63"/>
    </linearGradient>
    
    <linearGradient id="innerRing" x1="0%" y1="0%" x2="100%" y2="100%">
      <stop offset="0%" style="stop-color:#ff9800"/>
      <stop offset="100%" style="stop-color:#ffc107"/>
    </linearGradient>
  </defs>
  
  <!-- Background -->
  <rect width="48" height="48" fill="url(#bgGradient)" rx="8"/>
  
  <!-- Decorative triangular elements -->
  <polygon points="8,6 10,6 9,9" fill="#e91e63" opacity="0.3"/>
  <polygon points="38,10 40,10 39,13" fill="#9c27b0" opacity="0.3"/>
  <polygon points="6,32 8,32 7,35" fill="#ff9800" opacity="0.3"/>
  <polygon points="40,34 42,34 41,37" fill="#e91e63" opacity="0.3"/>
  <polygon points="10,40 12,40 11,43" fill="#9c27b0" opacity="0.3"/>
  <polygon points="34,8 36,8 35,11" fill="#ffc107" opacity="0.3"/>
  
  <!-- Outer concentric circle -->
  <circle cx="24" cy="24" r="15" fill="none" stroke="url(#outerRing)" stroke-width="2.5"/>
  
  <!-- Middle concentric circle -->
  <circle cx="24" cy="24" r="12" fill="none" stroke="url(#middleRing)" stroke-width="2"/>
  
  <!-- Inner concentric circle -->
  <circle cx="24" cy="24" r="9" fill="none" stroke="url(#innerRing)" stroke-width="1.5"/>
  
  <!-- Musical note stem -->
  <rect x="25.5" y="15" width="1.5" height="11" fill="url(#noteGradient)" rx="0.75"/>
  
  <!-- Musical note head (circle) -->
  <circle cx="24" cy="25" r="3.5" fill="url(#noteGradient)"/>
  
  <!-- Musical note flag -->
  <path d="M27 15 Q30 13 32 15 Q30 17 27 18 Z" fill="url(#noteGradient)" opacity="0.8"/>
</svg>